PathFileType	4	(X/Y/Z)	CPRIT_Patient3_L_HipIso_Processed.TRC
DataRate	CameraRate	NumFrames	NumMarkers	Units	OrigDataRate	OrigDataStartFrame	OrigNumFrames
150.114591291062	150.114591291062	4	39	m	150.114591291062	984	       1311
Frame#	Time	R.Heel			R.Midfoot.Superior			R.Midfoot.Lateral			R.Toe			L.Heel			L.Midfoot.Superior			L.Midfoot.Lateral			L.Toe			R.Shank.Superior			R.Shank.Inferior			R.Shank.Lateral			R.Shank.Posterior			L.Shank.Superior			L.Shank.Inferior			L.Shank.Posterior			L.Shank.Lateral			R.Patella			L.Patella			R.Thigh.Superior			R.Thigh.Lateral			R.Thigh.Inferior			L.Thigh.Superior			L.Thigh.Inferior			L.Thigh.Lateral			L.Asis			R.Asis			Sacral			R.Shoulder			L.Shoulder			C7			J.Notch			Sternum			Thoracic			L.Elbow			L.Wrist			R.Elbow			R.Wrist			R.PSIS			L.PSIS			
		X1	Y1	Z1	X2	Y2	Z2	X3	Y3	Z3	X4	Y4	Z4	X5	Y5	Z5	X6	Y6	Z6	X7	Y7	Z7	X8	Y8	Z8	X9	Y9	Z9	X10	Y10	Z10	X11	Y11	Z11	X12	Y12	Z12	X13	Y13	Z13	X14	Y14	Z14	X15	Y15	Z15	X16	Y16	Z16	X17	Y17	Z17	X18	Y18	Z18	X19	Y19	Z19	X20	Y20	Z20	X21	Y21	Z21	X22	Y22	Z22	X23	Y23	Z23	X24	Y24	Z24	X25	Y25	Z25	X26	Y26	Z26	X27	Y27	Z27	X28	Y28	Z28	X29	Y29	Z29	X30	Y30	Z30	X31	Y31	Z31	X32	Y32	Z32	X33	Y33	Z33	X34	Y34	Z34	X35	Y35	Z35	X36	Y36	Z36	X37	Y37	Z37	X38	Y38	Z38	X39	Y39	Z39	

984	6.548330788804	0.872708769887	0.049064043556	0.147402536468	1.041303751283	0.099497849372	0.132757162770	0.958086284739	0.037594583540	0.190334459867	1.158462140734	0.057071038073	0.120145175196	0.308293717336	0.273219080907	0.094020494913	0.419043519293	0.242446989999	-0.044094694310	0.308533577628	0.244916926856	0.000006375434	0.455773355037	0.155249868551	-0.123359335025	0.987483806686	0.363817170784	0.159587590096	0.986542555048	0.242785317662	0.157415706639	0.929276546080	0.293429553135	0.228586052114	0.851810636481	0.351795826355	0.188600633506	0.567057795689	0.469375417882	-0.061126757233	0.483363104879	0.376443320816	-0.030352601323	0.476804749418	0.531510391081	0.032925412248	0.447639737727	0.461653767538	-0.043877375191	1.000617156502	0.473797482214	0.130780279809	0.661306740899	0.544603700804	-0.079533637431	1.042270455418	0.769665299025	0.117537130398	0.985829202695	0.711317540121	0.211514677929	1.022033747186	0.619139021802	0.105837199438	0.833427809075	0.809490344365	-0.124667235392	0.753783936945	0.664560626494	-0.107805509568	0.700719043274	0.797235660123	-0.105987829406	0.918182243993	0.955982356112	-0.101889181839	1.045543065259	0.906009383583	0.096667401949	0.858612714838	1.032753911397	0.105221732476	1.113210854787	1.436882760959	0.176094016497	1.006599394878	1.425154439801	-0.131022315432	1.019954899522	1.478730116252	0.044811555662	1.117442106167	1.357913994782	0.001975029773	1.123423305647	1.165812016897	-0.018252003708	0.921181674641	1.345281272606	0.084987338063	0.879133928080	1.170799876310	-0.279065662781	0.957800623558	0.987846668265	-0.435157895870	0.997903720214	1.224167783225	0.411144784434	1.089209665018	0.988994859115	0.420853613056	0.880733968142	1.029525057217	0.131864104519	0.835489834095	1.034724197460	0.068921176816	
985	6.554992366412	0.872711354732	0.049064891406	0.147399343512	1.041305923937	0.099495143578	0.132760531170	0.958086739625	0.037594916808	0.190333132032	1.158460629958	0.057068476476	0.120155269768	0.317608228717	0.264755291092	0.090082157422	0.430192018906	0.236046815246	-0.047008749786	0.319265570588	0.236522289632	-0.003920045988	0.469198166521	0.149561602808	-0.125824174381	0.987531994001	0.363799984658	0.159587187605	0.986575221755	0.242769538862	0.157412636725	0.929270757906	0.293419548026	0.228548393795	0.851837628305	0.351791973271	0.188512132456	0.574386817719	0.465224005462	-0.062792725761	0.492024663056	0.370925100306	-0.032686085119	0.482326012573	0.525850223115	0.030255148096	0.455047677317	0.455499900868	-0.046676561082	1.000682125296	0.473815247715	0.130795923189	0.667643905532	0.541834524447	-0.080207614908	1.042464908392	0.769682091008	0.117604004369	0.985811509746	0.711305119218	0.211544661197	1.022195909836	0.619145083146	0.105871935494	0.835996023542	0.808796948204	-0.124828663429	0.758253451400	0.662889656535	-0.107949420086	0.703467643738	0.794831522756	-0.107251046855	0.918849612365	0.956469072329	-0.101913435130	1.045551456927	0.906243131416	0.096914830447	0.858435924584	1.032719556215	0.105140048097	1.112853916504	1.436994980616	0.176156305088	1.006185065481	1.425193651205	-0.130977016552	1.019592340990	1.478818703467	0.044867630306	1.117100906844	1.358027488982	0.002033327544	1.123230145535	1.165984809087	-0.018159917527	0.920851497586	1.345311179930	0.085021700982	0.878978150300	1.170761713263	-0.279189488020	0.957861437889	0.987857099315	-0.435200304222	0.997726793177	1.224112363525	0.411112717611	1.089176994359	0.988997910465	0.420856587397	0.880458509743	1.029382221094	0.131838330099	0.835466827279	1.034821785137	0.068745837499	
986	6.561653944020	0.872714343122	0.049066085765	0.147396429686	1.041308333366	0.099492188018	0.132763595548	0.958087364221	0.037595211214	0.190331866404	1.158459556619	0.057065164074	0.120165433892	0.327228304010	0.256314502506	0.086135476030	0.441616786806	0.229717655164	-0.049905890723	0.330315783796	0.228168126464	-0.007846645735	0.482913805164	0.143992240884	-0.128253278357	0.987581566942	0.363782724157	0.159592824990	0.986609686043	0.242753696579	0.157413263988	0.929269277099	0.293408296634	0.228517390252	0.851867105817	0.351786912194	0.188434403759	0.581902684513	0.461109208872	-0.064461706208	0.500913863371	0.365453090816	-0.035015531175	0.488051150053	0.520180119361	0.027559629934	0.462683986005	0.449361389028	-0.049490127519	1.000746322708	0.473839206164	0.130819170130	0.674109780478	0.539102499555	-0.080916614398	1.042657016878	0.769705896825	0.117656458338	0.985801995198	0.711298178153	0.211566797760	1.022345187274	0.619157615992	0.105907003093	0.838618123078	0.808136981613	-0.124973157869	0.762826127789	0.661259109429	-0.108087977303	0.706302365290	0.792432093892	-0.108513350679	0.919515918243	0.956961133892	-0.101937726312	1.045548124832	0.906479629096	0.097167294778	0.858243663011	1.032683527997	0.105055549060	1.112496692663	1.437104679392	0.176215806653	1.005745824865	1.425232056958	-0.130927240259	1.019216502120	1.478906410463	0.044928091439	1.116743721754	1.358140434316	0.002087073556	1.123021209792	1.166157086501	-0.018074951543	0.920511600806	1.345341024594	0.085066528954	0.878808911138	1.170716932284	-0.279314729778	0.957921469245	0.987864983839	-0.435239079342	0.997561140134	1.224061642141	0.411086196206	1.089145453056	0.989001230250	0.420861423389	0.880171227722	1.029232910725	0.131809212656	0.835432129152	1.034918419456	0.068567062368	
987	6.568315521628	0.872717748001	0.049067654856	0.147393838037	1.041311014565	0.099488978911	0.132766366264	0.958088173496	0.037595447533	0.190330684851	1.158459004909	0.057061016932	0.120175605385	0.337146449908	0.247913080817	0.082187121685	0.453303903509	0.223473900060	-0.052783113952	0.341672022969	0.219872302118	-0.011766969253	0.496900192744	0.138556691472	-0.130646243949	0.987633234301	0.363765408697	0.159605044046	0.986646409420	0.242737761549	0.157417959671	0.929272983203	0.293395851313	0.228493732526	0.851899849881	0.351780860076	0.188368589432	0.589597670904	0.457041333997	-0.066131304171	0.510020850498	0.360039848607	-0.037338837826	0.493976537126	0.514511396489	0.024845389631	0.470539958067	0.443251820077	-0.052312899708	1.000810584826	0.473869949029	0.130850873526	0.680695243796	0.536415388322	-0.081662961701	1.042847282415	0.769737910449	0.117693797976	0.985801894879	0.711297718732	0.211579700623	1.022482007880	0.619177311686	0.105942004478	0.841290673675	0.807512952290	-0.125100652468	0.767496943529	0.659674770735	-0.108223313025	0.709219920873	0.790043646038	-0.109771889789	0.920179039317	0.957455316112	-0.101961199223	1.045532879624	0.906719155149	0.097425288135	0.858036009495	1.032645209909	0.104968391173	1.112138744090	1.437211880656	0.176272048044	1.005281777881	1.425269619164	-0.130873618305	1.018827186319	1.478993147153	0.044992239626	1.116370215404	1.358252582858	0.002135740204	1.122796377332	1.166328629310	-0.017997403429	0.920161203870	1.345370825803	0.085121670426	0.878626118766	1.170665732120	-0.279441445927	0.957980507720	0.987870319532	-0.435274293442	0.997406605285	1.224015731913	0.411064707232	1.089114922709	0.989004886029	0.420868026946	0.879872143823	1.029077304324	0.131776896760	0.835384988205	1.035013122901	0.068385197358	
